<svg xmlns="http://www.w3.org/2000/svg" viewBox="0 0 512 512"><g><path xmlns="http://www.w3.org/2000/svg" d="m0 30.125v451.75h512v-451.75zm482 30v30.25h-452v-30.25zm-75.375 180.75h15.125v30.25h-15.125c-8.34 0-15.125-6.785-15.125-15.125 0 0 0 0 0-.001 0-8.34 6.785-15.124 15.125-15.124zm0 60.25h75.375v37.781h-7.594c-29.099 0-54.726-15.082-69.524-37.826.579.023 1.159.045 1.743.045zm45.125-30v-30.25h30.25v30.25zm-45.125-60.25c-.584 0-1.164.022-1.743.044 14.798-22.744 40.425-37.825 69.524-37.825h7.594v37.781zm67.781-67.781c-62.257 0-112.906 50.649-112.906 112.905 0 62.257 50.649 112.906 112.906 112.906h7.594v22.719h-211v-61.88c34.33-6.972 60.25-37.387 60.25-73.745s-25.92-66.772-60.25-73.745v-61.88h211v22.719h-7.594zm-369.031 97.781c8.34 0 15.125 6.785 15.125 15.125v.001c0 8.34-6.785 15.125-15.125 15.125h-15.125v-30.25h15.125zm0-30h-75.375v-37.781h7.594c29.099 0 54.725 15.081 69.524 37.825-.58-.022-1.159-.044-1.743-.044zm-45.125 30v30.25h-30.25v-30.25zm45.125 60.25c.585 0 1.164-.022 1.743-.044-14.798 22.744-40.425 37.826-69.524 37.826h-7.594v-37.781h75.375zm-67.781 67.781c62.257 0 112.906-50.649 112.906-112.906 0-62.256-50.65-112.905-112.906-112.905h-7.594v-22.719h211v61.88c-34.33 6.973-60.25 37.387-60.25 73.745s25.919 66.772 60.25 73.745v61.88h-211v-22.719h7.594zm203.406-70.222c-17.599-6.203-30.25-22.989-30.25-42.684s12.651-36.48 30.25-42.684zm30-85.368c17.599 6.203 30.25 22.989 30.25 42.684s-12.651 36.481-30.25 42.684zm-241 238.559v-30.25h452v30.25z"></path></g></svg>